<?xml version="1.0" encoding="UTF-8" standalone="no"?>
<svg
   xmlns="http://www.w3.org/2000/svg"
   width="210mm"
   height="297mm"
   version="1.1">
  <g
     id="layer1"
     transform="translate(0,-2.5390623e-6)">
    <g
       transform="matrix(1.9937339,0,0,1.7636619,0,920.8169)"
       id="g3341">
    </g>
    <g
       transform="matrix(1.9937339,0,0,1.7636619,0,920.8169)"
       id="use3413">
    </g>
    <g
       transform="matrix(1.9937339,0,0,1.7636619,0,789.27162)"
       id="use3415">
    </g>
    <g
       transform="matrix(1.9937339,0,0,1.7636619,0,657.72634)"
       id="use3417">
    </g>
    <g
       transform="matrix(1.9937339,0,0,1.7636619,0,526.18107)"
       id="use3419">
    </g>
    <g
       transform="matrix(1.9937339,0,0,1.7636619,0,394.63579)"
       id="use3421">
    </g>
    <g
       transform="matrix(1.9937339,0,0,1.7636619,0,263.09051)"
       id="use3423">
    </g>
    <g
       transform="matrix(1.9937339,0,0,1.7636619,0,131.54523)"
       id="use3425">
    </g>
    <g
       transform="matrix(1.9937339,0,0,1.7636619,0,-4e-5)"
       id="use3427">
    </g>
    <g
       transform="matrix(1.9937339,0,0,1.7636619,248.0315,920.8169)"
       id="use3429">
    </g>
    <g
       transform="matrix(1.9937339,0,0,1.7636619,248.0315,789.27162)"
       id="use3431">
    </g>
    <g
       transform="matrix(1.9937339,0,0,1.7636619,248.0315,657.72634)"
       id="use3433">
    </g>
    <g
       transform="matrix(1.9937339,0,0,1.7636619,248.0315,526.18107)"
       id="use3435">
    </g>
    <g
       transform="matrix(1.9937339,0,0,1.7636619,248.0315,394.63579)"
       id="use3437">
    </g>
    <g
       transform="matrix(1.9937339,0,0,1.7636619,248.0315,263.09051)"
       id="use3439">
    </g>
    <g
       transform="matrix(1.9937339,0,0,1.7636619,248.0315,131.54523)"
       id="use3441">
    </g>
    <g
       transform="matrix(1.9937339,0,0,1.7636619,248.0315,-4e-5)"
       id="use3443">
    </g>
    <g
       transform="matrix(1.9937339,0,0,1.7636619,496.063,920.8169)"
       id="use3445">
    </g>
    <g
       transform="matrix(1.9937339,0,0,1.7636619,496.063,789.27162)"
       id="use3447">
    </g>
    <g
       transform="matrix(1.9937339,0,0,1.7636619,496.063,657.72634)"
       id="use3449">
    </g>
    <g
       transform="matrix(1.9937339,0,0,1.7636619,496.063,526.18107)"
       id="use3451">
    </g>
    <g
       transform="matrix(1.9937339,0,0,1.7636619,496.063,394.63579)"
       id="use3453">
    </g>
    <g
       transform="matrix(1.9937339,0,0,1.7636619,496.063,263.09051)"
       id="use3455">
    </g>
    <g
       transform="matrix(1.9937339,0,0,1.7636619,496.063,131.54523)"
       id="use3457">
    </g>
    <g
       transform="matrix(1.9937339,0,0,1.7636619,496.063,-4e-5)"
       id="use3459">
    </g>
  </g>
</svg>
